<svg xmlns="http://www.w3.org/2000/svg" viewBox="0 0 512 512" width="512" height="512">
  <defs>
    <radialGradient id="bgGrad" cx="35%" cy="32%" r="72%" gradientUnits="objectBoundingBox"><stop offset="0%" stop-color="#0e1525"/><stop offset="100%" stop-color="#05080f"/></radialGradient>
    <radialGradient id="halo" cx="50%" cy="50%" r="50%"><stop offset="0%" stop-color="#1565c0" stop-opacity="0.32"/><stop offset="100%" stop-color="#1565c0" stop-opacity="0"/></radialGradient>
    <linearGradient id="ringGrad" x1="0" y1="0" x2="1" y2="1"><stop offset="0%" stop-color="#7ecfff"/><stop offset="45%" stop-color="#2196f3"/><stop offset="100%" stop-color="#0a4bbd"/></linearGradient>
    <linearGradient id="handleGrad" x1="0" y1="0" x2="1" y2="1"><stop offset="0%" stop-color="#5ac8ff"/><stop offset="55%" stop-color="#1976d2"/><stop offset="100%" stop-color="#0c4eaa"/></linearGradient>
    <radialGradient id="lensGrad" cx="42%" cy="38%" r="62%"><stop offset="0%" stop-color="#0c1120"/><stop offset="100%" stop-color="#04060d"/></radialGradient>
    <linearGradient id="boltFill" x1="0.5" y1="0" x2="0.5" y2="1"><stop offset="0%" stop-color="#dff2ff"/><stop offset="30%" stop-color="#64c8ff"/><stop offset="100%" stop-color="#1565c0"/></linearGradient>
    <filter id="boltGlow" x="-60%" y="-60%" width="220%" height="220%" color-interpolation-filters="sRGB"><feGaussianBlur in="SourceGraphic" stdDeviation="11" result="blur"/><feColorMatrix in="blur" type="matrix" values="0 0 0 0 0.12 0 0 0 0 0.55 0 0 0 0 1 0 0 0 0.75 0" result="coloredBlur"/><feMerge><feMergeNode in="coloredBlur"/><feMergeNode in="SourceGraphic"/></feMerge></filter>
    <filter id="ringGlow" x="-20%" y="-20%" width="140%" height="140%"><feGaussianBlur in="SourceGraphic" stdDeviation="4.5" result="blur"/><feMerge><feMergeNode in="blur"/><feMergeNode in="SourceGraphic"/></feMerge></filter>
    <clipPath id="lensClip"><circle cx="206" cy="200" r="115"/></clipPath>
  </defs>
  <rect width="512" height="512" rx="114" fill="url(#bgGrad)"/>
  <circle cx="206" cy="200" r="194" fill="url(#halo)"/>
  <line x1="307" y1="303" x2="412" y2="408" stroke="url(#handleGrad)" stroke-width="44" stroke-linecap="round"/>
  <line x1="299" y1="309" x2="394" y2="396" stroke="#a8dcff" stroke-width="9" stroke-linecap="round" opacity="0.18"/>
  <circle cx="206" cy="200" r="134" fill="none" stroke="url(#ringGrad)" stroke-width="30" filter="url(#ringGlow)"/>
  <circle cx="206" cy="200" r="118" fill="url(#lensGrad)"/>
  <circle cx="206" cy="200" r="116" fill="none" stroke="#020409" stroke-width="4" opacity="0.95"/>
  <polygon points="218,96 258,188 230,188 194,304 154,212 182,212" fill="url(#boltFill)" filter="url(#boltGlow)" clip-path="url(#lensClip)"/>
  <ellipse cx="158" cy="150" rx="24" ry="10" fill="white" opacity="0.055" transform="rotate(-40 158 150)"/>
  <text x="400" y="468" font-family="Georgia,serif" font-size="28" font-weight="700" letter-spacing="4" text-anchor="end" fill="#2196f3" opacity="0.45">SAPPI</text>
</svg>
